<?xml version="1.0" encoding="UTF-8" standalone="no"?>
<!DOCTYPE svg PUBLIC "-//W3C//DTD SVG 1.1//EN"
 "http://www.w3.org/Graphics/SVG/1.1/DTD/svg11.dtd">
<!-- Generated by graphviz version 2.40.1 (20161225.0304)
 -->
<!-- Title: Perl Pages: 1 -->
<svg width="1444pt" height="622pt"
 viewBox="0.00 0.00 1443.50 622.00" xmlns="http://www.w3.org/2000/svg" xmlns:xlink="http://www.w3.org/1999/xlink">
<g id="graph0" class="graph" transform="scale(1 1) rotate(0) translate(4 618)">
<title>Perl</title>
<polygon fill="#ffffff" stroke="transparent" points="-4,4 -4,-618 1439.5,-618 1439.5,4 -4,4"/>
<!-- idCine -->
<g id="node1" class="node">
<title>idCine</title>
<polygon fill="none" stroke="#000000" points="308.5,-470 245.5,-470 245.5,-434 308.5,-434 308.5,-470"/>
<text text-anchor="middle" x="277" y="-448.3" font-family="Times,serif" font-size="14.00" fill="#000000">idCine</text>
</g>
<!-- adresse -->
<g id="node2" class="node">
<title>adresse</title>
<polygon fill="none" stroke="#000000" points="318,-398 246,-398 246,-362 318,-362 318,-398"/>
<text text-anchor="middle" x="282" y="-376.3" font-family="Times,serif" font-size="14.00" fill="#000000">adresse</text>
</g>
<!-- idCine&#45;&gt;adresse -->
<g id="edge1" class="edge">
<title>idCine&#45;&gt;adresse</title>
<path fill="none" stroke="#ff0000" d="M278.2617,-433.8314C278.7965,-426.131 279.4323,-416.9743 280.0266,-408.4166"/>
<polygon fill="#ff0000" stroke="#ff0000" points="283.52,-408.6317 280.7213,-398.4133 276.5368,-408.1467 283.52,-408.6317"/>
</g>
<!-- ville -->
<g id="node3" class="node">
<title>ville</title>
<polygon fill="none" stroke="#000000" points="390,-398 336,-398 336,-362 390,-362 390,-398"/>
<text text-anchor="middle" x="363" y="-376.3" font-family="Times,serif" font-size="14.00" fill="#000000">ville</text>
</g>
<!-- idCine&#45;&gt;ville -->
<g id="edge2" class="edge">
<title>idCine&#45;&gt;ville</title>
<path fill="none" stroke="#ff0000" d="M298.7014,-433.8314C309.1921,-425.0485 321.9455,-414.3712 333.3194,-404.8489"/>
<polygon fill="#ff0000" stroke="#ff0000" points="335.8847,-407.2659 341.3055,-398.1628 331.3911,-401.8986 335.8847,-407.2659"/>
</g>
<!-- nbSalles -->
<g id="node4" class="node">
<title>nbSalles</title>
<polygon fill="none" stroke="#000000" points="218.5,-254 141.5,-254 141.5,-218 218.5,-218 218.5,-254"/>
<text text-anchor="middle" x="180" y="-232.3" font-family="Times,serif" font-size="14.00" fill="#000000">nbSalles</text>
</g>
<!-- idCine&#45;&gt;nbSalles -->
<g id="edge3" class="edge">
<title>idCine&#45;&gt;nbSalles</title>
<path fill="none" stroke="#ff0000" d="M261.4723,-433.9271C253.3789,-423.8474 243.7822,-410.7787 237,-398 213.4147,-353.5614 196.157,-297.3227 187.1323,-264.1462"/>
<polygon fill="#ff0000" stroke="#ff0000" points="190.4474,-262.9932 184.4939,-254.2292 183.6827,-264.7929 190.4474,-262.9932"/>
</g>
<!-- placeholder_1 -->
<g id="node36" class="node">
<title>placeholder_1</title>
<polygon fill="none" stroke="transparent" points="303,-308.5 249,-308.5 249,-307.5 303,-307.5 303,-308.5"/>
<polyline fill="none" stroke="#000000" points="249,-307.5 303,-307.5 "/>
</g>
<!-- adresse&#45;&gt;placeholder_1 -->
<g id="edge18" class="edge">
<title>adresse&#45;&gt;placeholder_1</title>
<path fill="none" stroke="#70db93" d="M280.4859,-361.8314C279.3659,-348.3911 277.8762,-330.5147 276.9275,-319.1294"/>
<polygon fill="#70db93" stroke="#70db93" points="280.3869,-318.4958 276.0684,-308.821 273.411,-319.0771 280.3869,-318.4958"/>
</g>
<!-- placeholder_2 -->
<g id="node37" class="node">
<title>placeholder_2</title>
<polygon fill="none" stroke="transparent" points="356,-73 302,-73 302,-72 356,-72 356,-73"/>
<polyline fill="none" stroke="#000000" points="302,-72 356,-72 "/>
</g>
<!-- adresse&#45;&gt;placeholder_2 -->
<g id="edge22" class="edge">
<title>adresse&#45;&gt;placeholder_2</title>
<path fill="none" stroke="#b5a642" d="M245.9775,-363.9228C192.1159,-337.4123 100.1414,-281.1361 132,-218 152.9038,-176.5736 281.367,-100.0197 318.7838,-78.3516"/>
<polygon fill="#b5a642" stroke="#b5a642" points="320.9638,-81.1361 327.896,-73.1239 317.4804,-75.0643 320.9638,-81.1361"/>
</g>
<!-- placeholder_5 -->
<g id="node40" class="node">
<title>placeholder_5</title>
<polygon fill="none" stroke="transparent" points="579,-308.5 525,-308.5 525,-307.5 579,-307.5 579,-308.5"/>
<polyline fill="none" stroke="#000000" points="525,-307.5 579,-307.5 "/>
</g>
<!-- adresse&#45;&gt;placeholder_5 -->
<g id="edge39" class="edge">
<title>adresse&#45;&gt;placeholder_5</title>
<path fill="none" stroke="#2f4f2f" d="M318.1852,-365.0025C321.1488,-363.9344 324.1134,-362.9184 327,-362 406.0982,-336.8348 504.0893,-317.114 538.9463,-310.443"/>
<polygon fill="#2f4f2f" stroke="#2f4f2f" points="539.6011,-313.8813 548.7799,-308.5898 538.3047,-307.0024 539.6011,-313.8813"/>
</g>
<!-- placeholder_7 -->
<g id="node42" class="node">
<title>placeholder_7</title>
<polygon fill="none" stroke="transparent" points="451,-182 397,-182 397,-181 451,-181 451,-182"/>
<polyline fill="none" stroke="#000000" points="397,-181 451,-181 "/>
</g>
<!-- adresse&#45;&gt;placeholder_7 -->
<g id="edge60" class="edge">
<title>adresse&#45;&gt;placeholder_7</title>
<path fill="none" stroke="#871f78" d="M295.1045,-361.6814C324.6836,-320.3332 395.7439,-220.9988 417.5361,-190.5358"/>
<polygon fill="#871f78" stroke="#871f78" points="420.4261,-192.5114 423.3978,-182.3419 414.7329,-188.4387 420.4261,-192.5114"/>
</g>
<!-- ville&#45;&gt;placeholder_1 -->
<g id="edge19" class="edge">
<title>ville&#45;&gt;placeholder_1</title>
<path fill="none" stroke="#70db93" d="M341.0462,-361.8314C322.6697,-346.6232 297.4299,-325.7351 284.4564,-314.9984"/>
<polygon fill="#70db93" stroke="#70db93" points="286.6294,-312.2536 276.6939,-308.5743 282.1664,-317.6464 286.6294,-312.2536"/>
</g>
<!-- ville&#45;&gt;placeholder_2 -->
<g id="edge23" class="edge">
<title>ville&#45;&gt;placeholder_2</title>
<path fill="none" stroke="#b5a642" d="M360.975,-361.6854C354.6181,-304.1935 335.186,-128.4466 330.1841,-83.209"/>
<polygon fill="#b5a642" stroke="#b5a642" points="333.6488,-82.6964 329.071,-73.1417 326.6912,-83.4658 333.6488,-82.6964"/>
</g>
<!-- ville&#45;&gt;placeholder_5 -->
<g id="edge40" class="edge">
<title>ville&#45;&gt;placeholder_5</title>
<path fill="none" stroke="#2f4f2f" d="M390.3525,-365.8843C393.2491,-364.5217 396.1699,-363.2015 399,-362 450.6669,-340.066 514.5999,-319.5607 540.3999,-311.5492"/>
<polygon fill="#2f4f2f" stroke="#2f4f2f" points="541.6157,-314.8373 550.1486,-308.5572 539.5618,-308.1453 541.6157,-314.8373"/>
</g>
<!-- ville&#45;&gt;placeholder_7 -->
<g id="edge61" class="edge">
<title>ville&#45;&gt;placeholder_7</title>
<path fill="none" stroke="#871f78" d="M370.2097,-361.631C374.1842,-351.2431 379.0903,-337.9746 383,-326 399.2,-276.3828 415.1313,-216.0194 421.3109,-192.0451"/>
<polygon fill="#871f78" stroke="#871f78" points="424.7867,-192.579 423.8684,-182.024 418.0041,-190.8479 424.7867,-192.579"/>
</g>
<!-- idFilm -->
<g id="node5" class="node">
<title>idFilm</title>
<polygon fill="none" stroke="#000000" points="974,-398 912,-398 912,-362 974,-362 974,-398"/>
<text text-anchor="middle" x="943" y="-376.3" font-family="Times,serif" font-size="14.00" fill="#000000">idFilm</text>
</g>
<!-- nomFilm -->
<g id="node6" class="node">
<title>nomFilm</title>
<polygon fill="none" stroke="#000000" points="746,-254 666,-254 666,-218 746,-218 746,-254"/>
<text text-anchor="middle" x="706" y="-232.3" font-family="Times,serif" font-size="14.00" fill="#000000">nomFilm</text>
</g>
<!-- idFilm&#45;&gt;nomFilm -->
<g id="edge4" class="edge">
<title>idFilm&#45;&gt;nomFilm</title>
<path fill="none" stroke="#00ff00" d="M912.9838,-361.7623C870.156,-335.7404 791.5024,-287.9508 744.4567,-259.3661"/>
<polygon fill="#00ff00" stroke="#00ff00" points="746.1361,-256.2911 735.7725,-254.0896 742.5012,-262.2734 746.1361,-256.2911"/>
</g>
<!-- dateSortie -->
<g id="node7" class="node">
<title>dateSortie</title>
<polygon fill="none" stroke="#000000" points="856,-254 764,-254 764,-218 856,-218 856,-254"/>
<text text-anchor="middle" x="810" y="-232.3" font-family="Times,serif" font-size="14.00" fill="#000000">dateSortie</text>
</g>
<!-- idFilm&#45;&gt;dateSortie -->
<g id="edge5" class="edge">
<title>idFilm&#45;&gt;dateSortie</title>
<path fill="none" stroke="#00ff00" d="M926.1555,-361.7623C902.7709,-336.4436 860.3536,-290.5182 833.76,-261.7251"/>
<polygon fill="#00ff00" stroke="#00ff00" points="836.0639,-259.061 826.7078,-254.0896 830.9216,-263.8105 836.0639,-259.061"/>
</g>
<!-- placeholder_0 -->
<g id="node35" class="node">
<title>placeholder_0</title>
<polygon fill="none" stroke="transparent" points="964,-308.5 910,-308.5 910,-307.5 964,-307.5 964,-308.5"/>
<polyline fill="none" stroke="#000000" points="910,-307.5 964,-307.5 "/>
</g>
<!-- idFilm&#45;&gt;placeholder_0 -->
<g id="edge9" class="edge">
<title>idFilm&#45;&gt;placeholder_0</title>
<path fill="none" stroke="#ff00ff" d="M941.4859,-361.8314C940.3659,-348.3911 938.8762,-330.5147 937.9275,-319.1294"/>
<polygon fill="#ff00ff" stroke="#ff00ff" points="941.3869,-318.4958 937.0684,-308.821 934.411,-319.0771 941.3869,-318.4958"/>
</g>
<!-- placeholder_3 -->
<g id="node38" class="node">
<title>placeholder_3</title>
<polygon fill="none" stroke="transparent" points="737,-182 683,-182 683,-181 737,-181 737,-182"/>
<polyline fill="none" stroke="#000000" points="683,-181 737,-181 "/>
</g>
<!-- nomFilm&#45;&gt;placeholder_3 -->
<g id="edge29" class="edge">
<title>nomFilm&#45;&gt;placeholder_3</title>
<path fill="none" stroke="#5f9f9f" d="M707.3319,-217.8523C707.9581,-209.3214 708.6829,-199.4459 709.2189,-192.1428"/>
<polygon fill="#5f9f9f" stroke="#5f9f9f" points="712.7204,-192.2492 709.9619,-182.0198 705.7392,-191.7367 712.7204,-192.2492"/>
</g>
<!-- placeholder_4 -->
<g id="node39" class="node">
<title>placeholder_4</title>
<polygon fill="none" stroke="transparent" points="890,-182 836,-182 836,-181 890,-181 890,-182"/>
<polyline fill="none" stroke="#000000" points="836,-181 890,-181 "/>
</g>
<!-- nomFilm&#45;&gt;placeholder_4 -->
<g id="edge35" class="edge">
<title>nomFilm&#45;&gt;placeholder_4</title>
<path fill="none" stroke="#b87333" d="M746.0806,-221.1798C749.0956,-220.0946 752.094,-219.0246 755,-218 790.049,-205.6422 831.7867,-191.7757 851.5442,-185.2624"/>
<polygon fill="#b87333" stroke="#b87333" points="852.8056,-188.5321 861.2127,-182.0846 850.6198,-181.8821 852.8056,-188.5321"/>
</g>
<!-- nomFilm&#45;&gt;placeholder_7 -->
<g id="edge59" class="edge">
<title>nomFilm&#45;&gt;placeholder_7</title>
<path fill="none" stroke="#871f78" d="M665.75,-227.5064C651.0505,-224.4483 634.2845,-221.0113 619,-218 550.6969,-204.543 468.6902,-189.5822 437.1988,-183.8812"/>
<polygon fill="#871f78" stroke="#871f78" points="437.4453,-180.3692 426.9824,-182.0363 436.2012,-187.2578 437.4453,-180.3692"/>
</g>
<!-- dateSortie&#45;&gt;placeholder_3 -->
<g id="edge30" class="edge">
<title>dateSortie&#45;&gt;placeholder_3</title>
<path fill="none" stroke="#5f9f9f" d="M776.7014,-217.8523C756.9293,-207.0765 733.2205,-194.1552 720.0607,-186.9831"/>
<polygon fill="#5f9f9f" stroke="#5f9f9f" points="721.4093,-183.732 710.9537,-182.0198 718.0594,-189.8785 721.4093,-183.732"/>
</g>
<!-- dateSortie&#45;&gt;placeholder_4 -->
<g id="edge36" class="edge">
<title>dateSortie&#45;&gt;placeholder_4</title>
<path fill="none" stroke="#b87333" d="M827.6482,-217.8523C837.0359,-208.1989 848.0979,-196.8238 855.3149,-189.4026"/>
<polygon fill="#b87333" stroke="#b87333" points="858.032,-191.6289 862.4945,-182.0198 853.0136,-186.7487 858.032,-191.6289"/>
</g>
<!-- idPers -->
<g id="node8" class="node">
<title>idPers</title>
<polygon fill="none" stroke="#000000" points="1054,-398 992,-398 992,-362 1054,-362 1054,-398"/>
<text text-anchor="middle" x="1023" y="-376.3" font-family="Times,serif" font-size="14.00" fill="#000000">idPers</text>
</g>
<!-- nomP -->
<g id="node9" class="node">
<title>nomP</title>
<polygon fill="none" stroke="#000000" points="1138.5,-326 1081.5,-326 1081.5,-290 1138.5,-290 1138.5,-326"/>
<text text-anchor="middle" x="1110" y="-304.3" font-family="Times,serif" font-size="14.00" fill="#000000">nomP</text>
</g>
<!-- idPers&#45;&gt;nomP -->
<g id="edge6" class="edge">
<title>idPers&#45;&gt;nomP</title>
<path fill="none" stroke="#0000ff" d="M1044.9538,-361.8314C1055.6695,-352.9632 1068.7189,-342.1637 1080.309,-332.5718"/>
<polygon fill="#0000ff" stroke="#0000ff" points="1082.5808,-335.2349 1088.0533,-326.1628 1078.1178,-329.8422 1082.5808,-335.2349"/>
</g>
<!-- prenomP -->
<g id="node10" class="node">
<title>prenomP</title>
<polygon fill="none" stroke="#000000" points="1063.5,-326 982.5,-326 982.5,-290 1063.5,-290 1063.5,-326"/>
<text text-anchor="middle" x="1023" y="-304.3" font-family="Times,serif" font-size="14.00" fill="#000000">prenomP</text>
</g>
<!-- idPers&#45;&gt;prenomP -->
<g id="edge7" class="edge">
<title>idPers&#45;&gt;prenomP</title>
<path fill="none" stroke="#0000ff" d="M1023,-361.8314C1023,-354.131 1023,-344.9743 1023,-336.4166"/>
<polygon fill="#0000ff" stroke="#0000ff" points="1026.5001,-336.4132 1023,-326.4133 1019.5001,-336.4133 1026.5001,-336.4132"/>
</g>
<!-- idPers&#45;&gt;placeholder_0 -->
<g id="edge8" class="edge">
<title>idPers&#45;&gt;placeholder_0</title>
<path fill="none" stroke="#ff00ff" d="M1001.2986,-361.8314C983.1333,-346.6232 958.1836,-325.7351 945.3592,-314.9984"/>
<polygon fill="#ff00ff" stroke="#ff00ff" points="947.6004,-312.31 937.686,-308.5743 943.1068,-317.6774 947.6004,-312.31"/>
</g>
<!-- role -->
<g id="node11" class="node">
<title>role</title>
<polygon fill="none" stroke="#000000" points="943,-254 889,-254 889,-218 943,-218 943,-254"/>
<text text-anchor="middle" x="916" y="-232.3" font-family="Times,serif" font-size="14.00" fill="#000000">role</text>
</g>
<!-- role&#45;&gt;placeholder_4 -->
<g id="edge37" class="edge">
<title>role&#45;&gt;placeholder_4</title>
<path fill="none" stroke="#b87333" d="M898.3518,-217.8523C888.9641,-208.1989 877.9021,-196.8238 870.6851,-189.4026"/>
<polygon fill="#b87333" stroke="#b87333" points="872.9864,-186.7487 863.5055,-182.0198 867.968,-191.6289 872.9864,-186.7487"/>
</g>
<!-- idClient -->
<g id="node12" class="node">
<title>idClient</title>
<polygon fill="none" stroke="#000000" points="734,-614 660,-614 660,-578 734,-578 734,-614"/>
<text text-anchor="middle" x="697" y="-592.3" font-family="Times,serif" font-size="14.00" fill="#000000">idClient</text>
</g>
<!-- nomC -->
<g id="node13" class="node">
<title>nomC</title>
<polygon fill="none" stroke="#000000" points="771.5,-542 712.5,-542 712.5,-506 771.5,-506 771.5,-542"/>
<text text-anchor="middle" x="742" y="-520.3" font-family="Times,serif" font-size="14.00" fill="#000000">nomC</text>
</g>
<!-- idClient&#45;&gt;nomC -->
<g id="edge11" class="edge">
<title>idClient&#45;&gt;nomC</title>
<path fill="none" stroke="#00ffff" d="M708.3554,-577.8314C713.4326,-569.7079 719.5227,-559.9637 725.1176,-551.0118"/>
<polygon fill="#00ffff" stroke="#00ffff" points="728.1597,-552.7483 730.4917,-542.4133 722.2237,-549.0383 728.1597,-552.7483"/>
</g>
<!-- prenomC -->
<g id="node14" class="node">
<title>prenomC</title>
<polygon fill="none" stroke="#000000" points="694.5,-542 611.5,-542 611.5,-506 694.5,-506 694.5,-542"/>
<text text-anchor="middle" x="653" y="-520.3" font-family="Times,serif" font-size="14.00" fill="#000000">prenomC</text>
</g>
<!-- idClient&#45;&gt;prenomC -->
<g id="edge12" class="edge">
<title>idClient&#45;&gt;prenomC</title>
<path fill="none" stroke="#00ffff" d="M685.8969,-577.8314C680.9326,-569.7079 674.9778,-559.9637 669.5072,-551.0118"/>
<polygon fill="#00ffff" stroke="#00ffff" points="672.4536,-549.121 664.2526,-542.4133 666.4806,-552.7712 672.4536,-549.121"/>
</g>
<!-- placeholder_6 -->
<g id="node41" class="node">
<title>placeholder_6</title>
<polygon fill="none" stroke="transparent" points="769,-452.5 715,-452.5 715,-451.5 769,-451.5 769,-452.5"/>
<polyline fill="none" stroke="#000000" points="715,-451.5 769,-451.5 "/>
</g>
<!-- nomC&#45;&gt;placeholder_6 -->
<g id="edge47" class="edge">
<title>nomC&#45;&gt;placeholder_6</title>
<path fill="none" stroke="#9932cd" d="M742,-505.8314C742,-492.3911 742,-474.5147 742,-463.1294"/>
<polygon fill="#9932cd" stroke="#9932cd" points="745.5001,-462.821 742,-452.821 738.5001,-462.821 745.5001,-462.821"/>
</g>
<!-- prenomC&#45;&gt;placeholder_6 -->
<g id="edge48" class="edge">
<title>prenomC&#45;&gt;placeholder_6</title>
<path fill="none" stroke="#9932cd" d="M675.4585,-505.8314C694.2574,-490.6232 720.0774,-469.7351 733.3492,-458.9984"/>
<polygon fill="#9932cd" stroke="#9932cd" points="735.7169,-461.5849 741.2901,-452.5743 731.3143,-456.1427 735.7169,-461.5849"/>
</g>
<!-- idSeance -->
<g id="node15" class="node">
<title>idSeance</title>
<polygon fill="none" stroke="#000000" points="409,-470 327,-470 327,-434 409,-434 409,-470"/>
<text text-anchor="middle" x="368" y="-448.3" font-family="Times,serif" font-size="14.00" fill="#000000">idSeance</text>
</g>
<!-- idSeance&#45;&gt;adresse -->
<g id="edge13" class="edge">
<title>idSeance&#45;&gt;adresse</title>
<path fill="none" stroke="#ffff00" d="M346.2986,-433.8314C335.8079,-425.0485 323.0545,-414.3712 311.6806,-404.8489"/>
<polygon fill="#ffff00" stroke="#ffff00" points="313.6089,-401.8986 303.6945,-398.1628 309.1153,-407.2659 313.6089,-401.8986"/>
</g>
<!-- idSeance&#45;&gt;ville -->
<g id="edge14" class="edge">
<title>idSeance&#45;&gt;ville</title>
<path fill="none" stroke="#ffff00" d="M366.7383,-433.8314C366.2035,-426.131 365.5677,-416.9743 364.9734,-408.4166"/>
<polygon fill="#ffff00" stroke="#ffff00" points="368.4632,-408.1467 364.2787,-398.4133 361.48,-408.6317 368.4632,-408.1467"/>
</g>
<!-- idSeance&#45;&gt;dateSortie -->
<g id="edge16" class="edge">
<title>idSeance&#45;&gt;dateSortie</title>
<path fill="none" stroke="#ffff00" d="M409.2752,-449.7645C461.8762,-445.5112 554.435,-433.2393 625,-398 693.3538,-363.8649 756.5501,-298.2844 788.3944,-261.9067"/>
<polygon fill="#ffff00" stroke="#ffff00" points="791.1807,-264.0353 795.0703,-254.1802 785.884,-259.4587 791.1807,-264.0353"/>
</g>
<!-- horaire -->
<g id="node16" class="node">
<title>horaire</title>
<polygon fill="none" stroke="#000000" points="476,-398 408,-398 408,-362 476,-362 476,-398"/>
<text text-anchor="middle" x="442" y="-376.3" font-family="Times,serif" font-size="14.00" fill="#000000">horaire</text>
</g>
<!-- idSeance&#45;&gt;horaire -->
<g id="edge15" class="edge">
<title>idSeance&#45;&gt;horaire</title>
<path fill="none" stroke="#ffff00" d="M386.6733,-433.8314C395.5249,-425.219 406.2486,-414.7851 415.8895,-405.4048"/>
<polygon fill="#ffff00" stroke="#ffff00" points="418.6061,-407.645 423.3326,-398.1628 413.7246,-402.6279 418.6061,-407.645"/>
</g>
<!-- numSalle -->
<g id="node17" class="node">
<title>numSalle</title>
<polygon fill="none" stroke="#000000" points="440.5,-145 357.5,-145 357.5,-109 440.5,-109 440.5,-145"/>
<text text-anchor="middle" x="399" y="-123.3" font-family="Times,serif" font-size="14.00" fill="#000000">numSalle</text>
</g>
<!-- idSeance&#45;&gt;numSalle -->
<g id="edge17" class="edge">
<title>idSeance&#45;&gt;numSalle</title>
<path fill="none" stroke="#ffff00" d="M326.7606,-436.2987C291.2384,-422.5623 244.5202,-403.9076 237,-398 164.1688,-340.7864 78.0993,-293.3159 132,-218 157.4332,-182.462 277.1746,-152.2465 347.3672,-137.2048"/>
<polygon fill="#ffff00" stroke="#ffff00" points="348.2862,-140.588 357.3469,-135.0968 346.8394,-133.7391 348.2862,-140.588"/>
</g>
<!-- horaire&#45;&gt;placeholder_5 -->
<g id="edge41" class="edge">
<title>horaire&#45;&gt;placeholder_5</title>
<path fill="none" stroke="#2f4f2f" d="M469.7576,-361.8314C493.4617,-346.316 526.1976,-324.8888 542.2829,-314.3603"/>
<polygon fill="#2f4f2f" stroke="#2f4f2f" points="544.6724,-316.9794 551.1226,-308.5743 540.8387,-311.1225 544.6724,-316.9794"/>
</g>
<!-- horaire&#45;&gt;placeholder_7 -->
<g id="edge58" class="edge">
<title>horaire&#45;&gt;placeholder_7</title>
<path fill="none" stroke="#871f78" d="M443.5461,-361.8007C445.6698,-331.5908 448.1637,-269.3319 438,-218 436.1545,-208.6792 432.1405,-198.6369 428.8817,-191.4498"/>
<polygon fill="#871f78" stroke="#871f78" points="431.9859,-189.8298 424.4631,-182.3693 425.6915,-192.8927 431.9859,-189.8298"/>
</g>
<!-- numSalle&#45;&gt;placeholder_2 -->
<g id="edge24" class="edge">
<title>numSalle&#45;&gt;placeholder_2</title>
<path fill="none" stroke="#b5a642" d="M375.691,-108.8523C362.7155,-98.75 347.3181,-86.762 337.8538,-79.3933"/>
<polygon fill="#b5a642" stroke="#b5a642" points="339.7083,-76.4014 329.6676,-73.0198 335.4079,-81.9248 339.7083,-76.4014"/>
</g>
<!-- numSalle&#45;&gt;placeholder_5 -->
<g id="edge43" class="edge">
<title>numSalle&#45;&gt;placeholder_5</title>
<path fill="none" stroke="#2f4f2f" d="M440.6727,-142.8653C502.98,-166.7802 613.7308,-210.1183 619,-218 627.8924,-231.3013 625.9048,-239.5666 619,-254 607.3144,-278.4268 578.5904,-295.3337 562.8123,-303.1245"/>
<polygon fill="#2f4f2f" stroke="#2f4f2f" points="560.9019,-300.1493 553.2618,-307.4896 563.8118,-306.5159 560.9019,-300.1493"/>
</g>
<!-- franchise -->
<g id="node18" class="node">
<title>franchise</title>
<polygon fill="none" stroke="#000000" points="319.5,-254 236.5,-254 236.5,-218 319.5,-218 319.5,-254"/>
<text text-anchor="middle" x="278" y="-232.3" font-family="Times,serif" font-size="14.00" fill="#000000">franchise</text>
</g>
<!-- salleCompatible3D -->
<g id="node19" class="node">
<title>salleCompatible3D</title>
<polygon fill="none" stroke="#000000" points="152,-36 0,-36 0,0 152,0 152,-36"/>
<text text-anchor="middle" x="76" y="-14.3" font-family="Times,serif" font-size="14.00" fill="#000000">salleCompatible3D</text>
</g>
<!-- nbPlacesStandard -->
<g id="node20" class="node">
<title>nbPlacesStandard</title>
<polygon fill="none" stroke="#000000" points="317.5,-36 170.5,-36 170.5,0 317.5,0 317.5,-36"/>
<text text-anchor="middle" x="244" y="-14.3" font-family="Times,serif" font-size="14.00" fill="#000000">nbPlacesStandard</text>
</g>
<!-- nbPlacesHandicape -->
<g id="node21" class="node">
<title>nbPlacesHandicape</title>
<polygon fill="none" stroke="#000000" points="494,-36 336,-36 336,0 494,0 494,-36"/>
<text text-anchor="middle" x="415" y="-14.3" font-family="Times,serif" font-size="14.00" fill="#000000">nbPlacesHandicape</text>
</g>
<!-- nbDBox -->
<g id="node22" class="node">
<title>nbDBox</title>
<polygon fill="none" stroke="#000000" points="585.5,-36 512.5,-36 512.5,0 585.5,0 585.5,-36"/>
<text text-anchor="middle" x="549" y="-14.3" font-family="Times,serif" font-size="14.00" fill="#000000">nbDBox</text>
</g>
<!-- public -->
<g id="node23" class="node">
<title>public</title>
<polygon fill="none" stroke="#000000" points="519.5,-145 458.5,-145 458.5,-109 519.5,-109 519.5,-145"/>
<text text-anchor="middle" x="489" y="-123.3" font-family="Times,serif" font-size="14.00" fill="#000000">public</text>
</g>
<!-- idPersASidReal -->
<g id="node24" class="node">
<title>idPersASidReal</title>
<polygon fill="none" stroke="#000000" points="664.5,-145 537.5,-145 537.5,-109 664.5,-109 664.5,-145"/>
<text text-anchor="middle" x="601" y="-123.3" font-family="Times,serif" font-size="14.00" fill="#000000">idPersASidReal</text>
</g>
<!-- duree -->
<g id="node25" class="node">
<title>duree</title>
<polygon fill="none" stroke="#000000" points="741,-145 683,-145 683,-109 741,-109 741,-145"/>
<text text-anchor="middle" x="712" y="-123.3" font-family="Times,serif" font-size="14.00" fill="#000000">duree</text>
</g>
<!-- compatible3D -->
<g id="node26" class="node">
<title>compatible3D</title>
<polygon fill="none" stroke="#000000" points="875,-145 759,-145 759,-109 875,-109 875,-145"/>
<text text-anchor="middle" x="817" y="-123.3" font-family="Times,serif" font-size="14.00" fill="#000000">compatible3D</text>
</g>
<!-- idPersASidAct -->
<g id="node27" class="node">
<title>idPersASidAct</title>
<polygon fill="none" stroke="#000000" points="1013,-145 893,-145 893,-109 1013,-109 1013,-145"/>
<text text-anchor="middle" x="953" y="-123.3" font-family="Times,serif" font-size="14.00" fill="#000000">idPersASidAct</text>
</g>
<!-- dateProjection -->
<g id="node28" class="node">
<title>dateProjection</title>
<polygon fill="none" stroke="#000000" points="616,-398 494,-398 494,-362 616,-362 616,-398"/>
<text text-anchor="middle" x="555" y="-376.3" font-family="Times,serif" font-size="14.00" fill="#000000">dateProjection</text>
</g>
<!-- dateProjection&#45;&gt;placeholder_5 -->
<g id="edge42" class="edge">
<title>dateProjection&#45;&gt;placeholder_5</title>
<path fill="none" stroke="#2f4f2f" d="M554.243,-361.8314C553.683,-348.3911 552.9381,-330.5147 552.4637,-319.1294"/>
<polygon fill="#2f4f2f" stroke="#2f4f2f" points="555.9476,-318.6666 552.0342,-308.821 548.9536,-318.9581 555.9476,-318.6666"/>
</g>
<!-- diffusionEn3D -->
<g id="node29" class="node">
<title>diffusionEn3D</title>
<polygon fill="none" stroke="#000000" points="609.5,-254 490.5,-254 490.5,-218 609.5,-218 609.5,-254"/>
<text text-anchor="middle" x="550" y="-232.3" font-family="Times,serif" font-size="14.00" fill="#000000">diffusionEn3D</text>
</g>
<!-- numReservation -->
<g id="node30" class="node">
<title>numReservation</title>
<polygon fill="none" stroke="#000000" points="924,-542 790,-542 790,-506 924,-506 924,-542"/>
<text text-anchor="middle" x="857" y="-520.3" font-family="Times,serif" font-size="14.00" fill="#000000">numReservation</text>
</g>
<!-- numReservation&#45;&gt;placeholder_6 -->
<g id="edge49" class="edge">
<title>numReservation&#45;&gt;placeholder_6</title>
<path fill="none" stroke="#9932cd" d="M827.9806,-505.8314C802.9538,-490.1624 768.2966,-468.4639 751.6644,-458.0508"/>
<polygon fill="#9932cd" stroke="#9932cd" points="753.2505,-454.9144 742.9173,-452.5743 749.5358,-460.8475 753.2505,-454.9144"/>
</g>
<!-- nbPlacesStandardRes -->
<g id="node31" class="node">
<title>nbPlacesStandardRes</title>
<polygon fill="none" stroke="#000000" points="1435.5,-398 1262.5,-398 1262.5,-362 1435.5,-362 1435.5,-398"/>
<text text-anchor="middle" x="1349" y="-376.3" font-family="Times,serif" font-size="14.00" fill="#000000">nbPlacesStandardRes</text>
</g>
<!-- nbPlacesHandicapeRes -->
<g id="node32" class="node">
<title>nbPlacesHandicapeRes</title>
<polygon fill="none" stroke="#000000" points="894.5,-398 709.5,-398 709.5,-362 894.5,-362 894.5,-398"/>
<text text-anchor="middle" x="802" y="-376.3" font-family="Times,serif" font-size="14.00" fill="#000000">nbPlacesHandicapeRes</text>
</g>
<!-- nbDBoxRes -->
<g id="node33" class="node">
<title>nbDBoxRes</title>
<polygon fill="none" stroke="#000000" points="1171.5,-398 1072.5,-398 1072.5,-362 1171.5,-362 1171.5,-398"/>
<text text-anchor="middle" x="1122" y="-376.3" font-family="Times,serif" font-size="14.00" fill="#000000">nbDBoxRes</text>
</g>
<!-- salle -->
<g id="node34" class="node">
<title>salle</title>
<polygon fill="none" stroke="#000000" points="1244,-398 1190,-398 1190,-362 1244,-362 1244,-398"/>
<text text-anchor="middle" x="1217" y="-376.3" font-family="Times,serif" font-size="14.00" fill="#000000">salle</text>
</g>
<!-- placeholder_0&#45;&gt;role -->
<g id="edge10" class="edge">
<title>placeholder_0&#45;&gt;role</title>
<path fill="none" stroke="#ff00ff" d="M936.7642,-307.1914C935.5019,-302.8636 929.4053,-281.9611 924.1422,-263.916"/>
<polygon fill="#ff00ff" stroke="#ff00ff" points="927.5,-262.9283 921.3399,-254.3083 920.78,-264.8883 927.5,-262.9283"/>
</g>
<!-- placeholder_1&#45;&gt;nbSalles -->
<g id="edge21" class="edge">
<title>placeholder_1&#45;&gt;nbSalles</title>
<path fill="none" stroke="#70db93" d="M274.9219,-307.1914C268.7775,-302.5831 237.5758,-279.1818 212.598,-260.4485"/>
<polygon fill="#70db93" stroke="#70db93" points="214.5111,-257.5083 204.4111,-254.3083 210.3111,-263.1084 214.5111,-257.5083"/>
</g>
<!-- placeholder_1&#45;&gt;franchise -->
<g id="edge20" class="edge">
<title>placeholder_1&#45;&gt;franchise</title>
<path fill="none" stroke="#70db93" d="M276.0225,-307.1914C276.1416,-302.9037 276.7126,-282.3467 277.2106,-264.4179"/>
<polygon fill="#70db93" stroke="#70db93" points="280.7123,-264.4017 277.4914,-254.3083 273.715,-264.2072 280.7123,-264.4017"/>
</g>
<!-- placeholder_2&#45;&gt;salleCompatible3D -->
<g id="edge25" class="edge">
<title>placeholder_2&#45;&gt;salleCompatible3D</title>
<path fill="none" stroke="#b5a642" d="M326.496,-71.9606C311.1684,-68.6588 228.4841,-50.8474 162.2419,-36.5778"/>
<polygon fill="#b5a642" stroke="#b5a642" points="162.6945,-33.0951 152.1817,-34.4107 161.2204,-39.9381 162.6945,-33.0951"/>
</g>
<!-- placeholder_2&#45;&gt;nbPlacesStandard -->
<g id="edge26" class="edge">
<title>placeholder_2&#45;&gt;nbPlacesStandard</title>
<path fill="none" stroke="#b5a642" d="M328.0454,-71.8879C323.2577,-68.8182 301.2873,-54.7313 281.0118,-41.7311"/>
<polygon fill="#b5a642" stroke="#b5a642" points="282.7885,-38.7126 272.4811,-36.2614 279.0101,-44.6054 282.7885,-38.7126"/>
</g>
<!-- placeholder_2&#45;&gt;nbPlacesHandicape -->
<g id="edge27" class="edge">
<title>placeholder_2&#45;&gt;nbPlacesHandicape</title>
<path fill="none" stroke="#b5a642" d="M329.9658,-71.8879C334.8099,-68.8182 357.0387,-54.7313 377.5528,-41.7311"/>
<polygon fill="#b5a642" stroke="#b5a642" points="379.6106,-44.5707 386.1839,-36.2614 375.8636,-38.6579 379.6106,-44.5707"/>
</g>
<!-- placeholder_2&#45;&gt;nbDBox -->
<g id="edge28" class="edge">
<title>placeholder_2&#45;&gt;nbDBox</title>
<path fill="none" stroke="#b5a642" d="M332.8545,-71.9352C350.9138,-69.2408 429.0191,-57.0526 502.4273,-35.8936"/>
<polygon fill="#b5a642" stroke="#b5a642" points="503.6781,-39.1739 512.2806,-32.9894 501.6991,-32.4595 503.6781,-39.1739"/>
</g>
<!-- placeholder_3&#45;&gt;public -->
<g id="edge31" class="edge">
<title>placeholder_3&#45;&gt;public</title>
<path fill="none" stroke="#5f9f9f" d="M705.3968,-180.9805C685.3995,-178.6442 604.0592,-168.3194 529.7731,-145.2078"/>
<polygon fill="#5f9f9f" stroke="#5f9f9f" points="530.4072,-141.7357 519.8161,-142.017 528.271,-148.4018 530.4072,-141.7357"/>
</g>
<!-- placeholder_3&#45;&gt;idPersASidReal -->
<g id="edge32" class="edge">
<title>placeholder_3&#45;&gt;idPersASidReal</title>
<path fill="none" stroke="#5f9f9f" d="M708.7759,-180.8879C702.4783,-177.7392 672.9982,-162.9991 646.46,-149.73"/>
<polygon fill="#5f9f9f" stroke="#5f9f9f" points="647.7482,-146.461 637.2386,-145.1193 644.6176,-152.722 647.7482,-146.461"/>
</g>
<!-- placeholder_3&#45;&gt;duree -->
<g id="edge33" class="edge">
<title>placeholder_3&#45;&gt;duree</title>
<path fill="none" stroke="#5f9f9f" d="M710.0225,-180.8879C710.122,-178.1745 710.5375,-166.853 710.9621,-155.2829"/>
<polygon fill="#5f9f9f" stroke="#5f9f9f" points="714.4607,-155.3831 711.3299,-145.2614 707.4654,-155.1263 714.4607,-155.3831"/>
</g>
<!-- placeholder_3&#45;&gt;compatible3D -->
<g id="edge34" class="edge">
<title>placeholder_3&#45;&gt;compatible3D</title>
<path fill="none" stroke="#5f9f9f" d="M711.2017,-180.8879C717.3837,-177.7392 746.3228,-162.9991 772.3741,-149.73"/>
<polygon fill="#5f9f9f" stroke="#5f9f9f" points="774.1041,-152.7768 781.4263,-145.1193 770.927,-146.5392 774.1041,-152.7768"/>
</g>
<!-- placeholder_4&#45;&gt;idPersASidAct -->
<g id="edge38" class="edge">
<title>placeholder_4&#45;&gt;idPersASidAct</title>
<path fill="none" stroke="#b87333" d="M864.0107,-180.8879C869.1027,-177.8044 892.5509,-163.6053 914.0984,-150.5571"/>
<polygon fill="#b87333" stroke="#b87333" points="916.1026,-153.4352 922.8436,-145.2614 912.4767,-147.4474 916.1026,-153.4352"/>
</g>
<!-- placeholder_5&#45;&gt;nomFilm -->
<g id="edge44" class="edge">
<title>placeholder_5&#45;&gt;nomFilm</title>
<path fill="none" stroke="#2f4f2f" d="M553.3313,-307.3776C562.4872,-303.0969 616.9945,-277.613 658.2915,-258.3053"/>
<polygon fill="#2f4f2f" stroke="#2f4f2f" points="659.833,-261.4483 667.4094,-254.0423 656.8682,-255.1071 659.833,-261.4483"/>
</g>
<!-- placeholder_5&#45;&gt;dateSortie -->
<g id="edge45" class="edge">
<title>placeholder_5&#45;&gt;dateSortie</title>
<path fill="none" stroke="#2f4f2f" d="M554.4272,-307.4094C570.7346,-303.4305 666.1248,-279.9843 754.246,-254.1468"/>
<polygon fill="#2f4f2f" stroke="#2f4f2f" points="755.2452,-257.5013 763.8456,-251.3138 753.2638,-250.7875 755.2452,-257.5013"/>
</g>
<!-- placeholder_5&#45;&gt;diffusionEn3D -->
<g id="edge46" class="edge">
<title>placeholder_5&#45;&gt;diffusionEn3D</title>
<path fill="none" stroke="#2f4f2f" d="M551.9775,-307.1914C551.8584,-302.9037 551.2874,-282.3467 550.7894,-264.4179"/>
<polygon fill="#2f4f2f" stroke="#2f4f2f" points="554.285,-264.2072 550.5086,-254.3083 547.2877,-264.4017 554.285,-264.2072"/>
</g>
<!-- placeholder_6&#45;&gt;adresse -->
<g id="edge54" class="edge">
<title>placeholder_6&#45;&gt;adresse</title>
<path fill="none" stroke="#9932cd" d="M728.8642,-451.4883C678.0546,-449.2647 489.627,-438.7557 328.1894,-397.9432"/>
<polygon fill="#9932cd" stroke="#9932cd" points="328.6433,-394.4459 318.0862,-395.3397 326.8964,-401.2245 328.6433,-394.4459"/>
</g>
<!-- placeholder_6&#45;&gt;ville -->
<g id="edge55" class="edge">
<title>placeholder_6&#45;&gt;ville</title>
<path fill="none" stroke="#9932cd" d="M731.0519,-451.4961C688.8498,-449.3079 532.8563,-438.9465 399.697,-397.6832"/>
<polygon fill="#9932cd" stroke="#9932cd" points="400.741,-394.3425 390.1509,-394.6585 398.6266,-401.0156 400.741,-394.3425"/>
</g>
<!-- placeholder_6&#45;&gt;nomFilm -->
<g id="edge53" class="edge">
<title>placeholder_6&#45;&gt;nomFilm</title>
<path fill="none" stroke="#9932cd" d="M741.2162,-451.3476C736.3064,-447.2025 709.7122,-423.8818 701,-398 685.8526,-353.0008 692.8458,-296.9405 699.3733,-263.9508"/>
<polygon fill="#9932cd" stroke="#9932cd" points="702.8132,-264.6002 701.4476,-254.0938 695.9632,-263.1587 702.8132,-264.6002"/>
</g>
<!-- placeholder_6&#45;&gt;horaire -->
<g id="edge57" class="edge">
<title>placeholder_6&#45;&gt;horaire</title>
<path fill="none" stroke="#9932cd" d="M738.3101,-451.4941C715.6904,-448.3394 593.4631,-430.5261 485.7599,-397.9311"/>
<polygon fill="#9932cd" stroke="#9932cd" points="486.6382,-394.5394 476.051,-394.9395 484.5769,-401.2291 486.6382,-394.5394"/>
</g>
<!-- placeholder_6&#45;&gt;nbPlacesStandardRes -->
<g id="edge50" class="edge">
<title>placeholder_6&#45;&gt;nbPlacesStandardRes</title>
<path fill="none" stroke="#9932cd" d="M748.6527,-451.4995C792.051,-448.1936 1039.4286,-428.7211 1252.3349,-398.0286"/>
<polygon fill="#9932cd" stroke="#9932cd" points="1253.0539,-401.461 1262.4463,-396.5586 1252.0468,-394.5338 1253.0539,-401.461"/>
</g>
<!-- placeholder_6&#45;&gt;nbPlacesHandicapeRes -->
<g id="edge51" class="edge">
<title>placeholder_6&#45;&gt;nbPlacesHandicapeRes</title>
<path fill="none" stroke="#9932cd" d="M742.6738,-451.1914C746.3805,-446.7434 764.6775,-424.787 779.984,-406.4192"/>
<polygon fill="#9932cd" stroke="#9932cd" points="783.03,-408.2312 786.7431,-398.3083 777.6524,-403.7499 783.03,-408.2312"/>
</g>
<!-- placeholder_6&#45;&gt;nbDBoxRes -->
<g id="edge52" class="edge">
<title>placeholder_6&#45;&gt;nbDBoxRes</title>
<path fill="none" stroke="#9932cd" d="M746.57,-451.4579C774.7338,-448.0719 927.6541,-429.03 1062.1684,-398.0292"/>
<polygon fill="#9932cd" stroke="#9932cd" points="1063.2883,-401.3619 1072.2302,-395.6794 1061.6963,-394.5453 1063.2883,-401.3619"/>
</g>
<!-- placeholder_6&#45;&gt;salle -->
<g id="edge56" class="edge">
<title>placeholder_6&#45;&gt;salle</title>
<path fill="none" stroke="#9932cd" d="M748.6338,-451.4956C795.3419,-447.8995 1075.688,-425.5698 1180.0552,-397.5754"/>
<polygon fill="#9932cd" stroke="#9932cd" points="1181.2315,-400.8793 1189.8808,-394.7605 1179.3036,-394.15 1181.2315,-400.8793"/>
</g>
<!-- placeholder_7&#45;&gt;numSalle -->
<g id="edge62" class="edge">
<title>placeholder_7&#45;&gt;numSalle</title>
<path fill="none" stroke="#871f78" d="M423.7192,-180.8879C422.4494,-178.1196 417.0698,-166.3921 411.6521,-154.5815"/>
<polygon fill="#871f78" stroke="#871f78" points="414.7275,-152.8914 407.3768,-145.2614 408.365,-155.8101 414.7275,-152.8914"/>
</g>
</g>
</svg>
